<?xml version="1.0" encoding="utf-8"?>
<!-- Generator: Adobe Illustrator 21.0.0, SVG Export Plug-In . SVG Version: 6.00 Build 0)  -->
<svg version="1.1" id="Capa_1" xmlns="http://www.w3.org/2000/svg" xmlns:xlink="http://www.w3.org/1999/xlink" x="0px" y="0px"
	 viewBox="0 0 440 440" style="enable-background:new 0 0 440 440;" xml:space="preserve">
<style type="text/css">
	.st0{fill:#FFFFFF;}
</style>
<g>
	<g>
		<path class="st0" d="M438,138L374,33c-6-6.7-9.7-10-11-10H87L4,134l-1,1v1c-0.7,0.7-1.3,1.7-2,3v1c-0.7,2-1,4-1,6
			c0,1.3,0.3,2.7,1,4v1l2,4l201,254v1l4,4h1c1.3,0.7,3,1.3,5,2l1,1h5h6l1-1l4-2h1c1.3-1.3,2.3-2.7,3-4l202-255c0.7-0.7,1.3-2,2-4
			c0.7-1.3,1-2.7,1-4v-1v-1v-2v-1C439.3,140,438.7,138.7,438,138z M329,64l-31,56l-41-56H329z M264,136h-88l44-60L264,136z M183,64
			l-38,52l-19-52H183z M94,84l19,52H56L94,84z M57,167h68l46,143L57,167z M220,339l-55-172h110L220,339z M269,310l46-143h68L269,310
			z M332,136l29-52l28,52H332z"/>
	</g>
</g>
</svg>
